<svg id="visual" viewBox="0 0 900 600" width="900" height="600" xmlns="http://www.w3.org/2000/svg" xmlns:xlink="http://www.w3.org/1999/xlink" version="1.1"><rect x="0" y="0" width="900" height="600" fill="#002233"></rect><path d="M0 527L21.5 524.2C43 521.3 86 515.7 128.8 520C171.7 524.3 214.3 538.7 257.2 543.5C300 548.3 343 543.7 385.8 536.8C428.7 530 471.3 521 514.2 519.5C557 518 600 524 642.8 529.2C685.7 534.3 728.3 538.7 771.2 535.3C814 532 857 521 878.5 515.5L900 510L900 601L878.5 601C857 601 814 601 771.2 601C728.3 601 685.7 601 642.8 601C600 601 557 601 514.2 601C471.3 601 428.7 601 385.8 601C343 601 300 601 257.2 601C214.3 601 171.7 601 128.8 601C86 601 43 601 21.5 601L0 601Z" fill="#0066FF" stroke-linecap="round" stroke-linejoin="miter"></path></svg>